<svg aria-hidden="true" style="position: absolute; width: 0; height: 0; overflow: hidden;" version="1.1" xmlns="http://www.w3.org/2000/svg" xmlns:xlink="http://www.w3.org/1999/xlink">
<defs>
<symbol id="icon-logo-header" viewBox="0 0 31 32">
<path fill="#ff6e40" style="fill: var(--color1, #ff6e40)" d="M26.444 5.201c-6.284 0-11.378 5.094-11.378 11.378 6.284 0 11.378-5.094 11.378-11.378z"></path>
<path fill="#ff6e40" style="fill: var(--color1, #ff6e40)" d="M26.444 26.536c-6.284 0-11.378-5.094-11.378-11.378 6.284 0 11.378 5.094 11.378 11.378z"></path>
<path fill="#ff6e40" style="fill: var(--color1, #ff6e40)" d="M15.066 16.58c-6.284 0-11.378-5.094-11.378-11.378 6.284 0 11.378 5.094 11.378 11.378z"></path>
<path fill="#ff6e40" style="fill: var(--color1, #ff6e40)" d="M15.066 15.156c-6.284 0-11.378 5.094-11.378 11.378 6.284 0 11.378-5.094 11.378-11.378z"></path>
<path fill="#ff6e40" style="fill: var(--color1, #ff6e40)" d="M30.445 16.092c-4.443-4.443-11.647-4.443-16.091 0 4.443 4.443 11.647 4.443 16.091 0z"></path>
<path fill="#ff6e40" style="fill: var(--color1, #ff6e40)" d="M16.223 16.092c-4.443-4.443-11.647-4.443-16.091 0 4.443 4.443 11.647 4.443 16.091 0z"></path>
<path fill="#ff6e40" style="fill: var(--color1, #ff6e40)" d="M15.289 16.091c-4.443-4.443-4.443-11.647 0-16.091 4.443 4.443 4.443 11.647 0 16.091z"></path>
<path fill="#ff6e40" style="fill: var(--color1, #ff6e40)" d="M15.289 15.646c-4.443 4.443-4.443 11.647 0 16.090 4.443-4.443 4.443-11.647 0-16.090z"></path>
</symbol>
<symbol id="icon-map-header" viewBox="0 0 27 32">
<path d="M20.809 5.514c-0.079-0.296-0.239-0.61-0.358-0.886-1.418-3.407-4.515-4.628-7.016-4.628-3.348 0-7.035 2.245-7.528 6.872v0.945c0 0.039 0.014 0.394 0.033 0.571 0.276 2.205 2.016 4.549 3.316 6.754 1.398 2.363 2.849 4.687 4.286 7.010 0.886-1.516 1.769-3.052 2.636-4.529 0.236-0.433 0.51-0.867 0.746-1.28 0.158-0.275 0.458-0.551 0.596-0.807 1.398-2.56 3.649-5.139 3.649-7.68v-1.044c0-0.275-0.341-1.24-0.36-1.3zM13.496 10.26c-0.984 0-2.061-0.492-2.593-1.851-0.079-0.216-0.073-0.65-0.073-0.69v-0.61c0-1.732 1.471-2.52 2.751-2.52 1.575 0 2.794 1.26 2.794 2.836s-1.303 2.836-2.879 2.836z"></path>
</symbol>
<symbol id="icon-phone-header" viewBox="0 0 32 32">
<path d="M26.913 20.019c-1.157-1.142-2.6-1.142-3.75 0-0.877 0.869-1.753 1.738-2.615 2.622-0.236 0.243-0.434 0.295-0.722 0.133-0.567-0.309-1.171-0.56-1.716-0.899-2.541-1.599-4.67-3.654-6.556-5.967-0.936-1.149-1.768-2.379-2.35-3.764-0.118-0.28-0.096-0.464 0.133-0.692 0.877-0.847 1.731-1.716 2.593-2.586 1.201-1.208 1.201-2.622-0.007-3.838-0.685-0.692-1.37-1.37-2.055-2.063-0.707-0.707-1.407-1.422-2.122-2.122-1.157-1.127-2.6-1.127-3.749 0.007-0.884 0.869-1.731 1.761-2.63 2.615-0.832 0.788-1.252 1.753-1.341 2.88-0.14 1.834 0.309 3.565 0.943 5.252 1.296 3.492 3.271 6.593 5.665 9.436 3.234 3.845 7.094 6.887 11.609 9.083 2.033 0.987 4.14 1.746 6.431 1.871 1.576 0.088 2.947-0.309 4.044-1.54 0.751-0.84 1.599-1.606 2.394-2.409 1.179-1.193 1.186-2.637 0.015-3.816-1.4-1.407-2.807-2.807-4.213-4.206z"></path>
</symbol>
<symbol id="icon-button-crest" viewBox="0 0 32 32">
<path d="M32.003 3.223l-3.223-3.223-12.778 12.778-12.778-12.778-3.223 3.223 12.778 12.778-12.778 12.778 3.223 3.223 12.778-12.778 12.778 12.778 3.223-3.223-12.778-12.778 12.778-12.778z"></path>
</symbol>
<symbol id="icon-menu-burger-mobile" viewBox="0 0 47 32">
<path d="M0.944 0.090c-0.141 0.041-0.412 0.228-0.601 0.418l-0.343 0.343v2.506l0.332 0.332c0.636 0.636-1.541 0.583 23.296 0.56l22.109-0.019 0.407-0.225 0.407-0.227v-3.375l-0.806-0.402-22.271 0.007c-13.936 0.004-22.368 0.035-22.529 0.081zM1.068 13.578c-0.359 0.109-0.742 0.384-0.909 0.653-0.141 0.23-0.159 0.384-0.159 1.413 0 1.004 0.020 1.187 0.151 1.401 0.217 0.355 0.735 0.628 1.365 0.72 0.742 0.108 43.085 0.108 43.826 0 0.295-0.042 0.679-0.156 0.854-0.252l0.316-0.175v-3.408l-0.698-0.39-22.266-0.013c-12.247-0.007-22.363 0.016-22.48 0.051zM1.219 27.084c-0.394 0.078-0.73 0.283-0.973 0.571l-0.002 0.003-0.244 0.279v2.498l0.332 0.332c0.636 0.634-1.541 0.582 23.296 0.56 20.795-0.019 22.125-0.028 22.381-0.154 0.573-0.285 0.543-0.17 0.543-2.022v-1.673l-0.892-0.438-22.074-0.012c-12.749-0.007-22.196 0.016-22.366 0.057z"></path>
</symbol>
<symbol id="icon-facebook" viewBox="0 0 32 32">
<path d="M21.329 5.313h2.921v-5.088c-0.504-0.069-2.237-0.225-4.256-0.225-4.212 0-7.097 2.649-7.097 7.519v4.481h-4.648v5.688h4.648v14.312h5.699v-14.311h4.46l0.708-5.688h-5.169v-3.919c0.001-1.644 0.444-2.769 2.735-2.769z"></path>
</symbol>
<symbol id="icon-gmail" viewBox="0 0 32 32">
<path d="M6.906 8.9c-0.287 0.125-0.588 0.4-0.737 0.688l-0.138 0.256-0.019 6.019c-0.006 3.938 0.006 6.1 0.050 6.256 0.088 0.331 0.3 0.625 0.612 0.85 0.25 0.175 0.319 0.188 0.894 0.206l0.619 0.025v-5.35c0-2.944 0.019-5.35 0.037-5.35s1.744 1.225 3.838 2.719c2.094 1.5 3.85 2.737 3.894 2.756 0.056 0.019 1.688-1.106 3.944-2.719 2.119-1.519 3.869-2.756 3.881-2.756 0.019 0 0.031 2.425 0.031 5.381v5.387l0.556-0.038c0.65-0.044 0.95-0.169 1.269-0.544 0.119-0.137 0.25-0.356 0.288-0.494 0.056-0.175 0.075-1.863 0.075-6.231v-5.994l-0.15-0.313c-0.175-0.369-0.413-0.613-0.738-0.744-0.506-0.213-0.313-0.331-4.863 2.938-2.319 1.662-4.25 3.012-4.281 3-0.037-0.012-1.956-1.375-4.262-3.031-4.5-3.225-4.331-3.125-4.8-2.919z"></path>
</symbol>
<symbol id="icon-instagram" viewBox="0 0 32 32">
<path d="M31.969 9.408c-0.075-1.7-0.35-2.869-0.744-3.882-0.406-1.075-1.031-2.038-1.85-2.838-0.8-0.813-1.769-1.444-2.832-1.844-1.019-0.394-2.182-0.669-3.882-0.744-1.713-0.081-2.257-0.1-6.601-0.1s-4.888 0.019-6.595 0.094c-1.7 0.075-2.869 0.35-3.882 0.744-1.075 0.406-2.038 1.031-2.838 1.85-0.813 0.8-1.444 1.769-1.844 2.832-0.394 1.019-0.669 2.182-0.744 3.882-0.081 1.713-0.1 2.257-0.1 6.601s0.019 4.888 0.094 6.595c0.075 1.7 0.35 2.869 0.744 3.882 0.406 1.075 1.038 2.038 1.85 2.838 0.8 0.813 1.769 1.444 2.832 1.844 1.019 0.394 2.182 0.669 3.882 0.744 1.706 0.075 2.25 0.094 6.595 0.094s4.888-0.018 6.595-0.094c1.7-0.075 2.869-0.35 3.882-0.744 2.151-0.831 3.851-2.532 4.682-4.682 0.394-1.019 0.669-2.182 0.744-3.882 0.075-1.707 0.094-2.251 0.094-6.595s-0.006-4.888-0.081-6.595zM29.087 22.473c-0.069 1.563-0.331 2.407-0.55 2.969-0.538 1.394-1.644 2.501-3.038 3.038-0.563 0.219-1.413 0.481-2.969 0.55-1.688 0.075-2.194 0.094-6.464 0.094s-4.782-0.018-6.464-0.094c-1.563-0.069-2.407-0.331-2.969-0.55-0.694-0.256-1.325-0.663-1.838-1.194-0.531-0.519-0.938-1.144-1.194-1.838-0.219-0.563-0.481-1.413-0.55-2.969-0.075-1.688-0.094-2.194-0.094-6.464s0.019-4.782 0.094-6.464c0.069-1.563 0.331-2.407 0.55-2.969 0.256-0.694 0.663-1.325 1.2-1.838 0.519-0.531 1.144-0.938 1.838-1.194 0.563-0.219 1.413-0.481 2.969-0.55 1.688-0.075 2.194-0.094 6.464-0.094 4.276 0 4.782 0.019 6.464 0.094 1.563 0.069 2.407 0.331 2.969 0.55 0.694 0.256 1.325 0.662 1.838 1.194 0.531 0.519 0.938 1.144 1.194 1.838 0.219 0.563 0.481 1.413 0.55 2.969 0.075 1.688 0.094 2.194 0.094 6.464s-0.019 4.77-0.094 6.457z"></path>
<path d="M16.059 7.782c-4.538 0-8.22 3.682-8.22 8.22s3.682 8.22 8.22 8.22c4.538 0 8.22-3.682 8.22-8.22s-3.682-8.22-8.22-8.22zM16.059 21.335c-2.944 0-5.332-2.388-5.332-5.332s2.388-5.332 5.332-5.332c2.944 0 5.332 2.388 5.332 5.332s-2.388 5.332-5.332 5.332z"></path>
<path d="M26.524 7.457c0 1.060-0.859 1.919-1.919 1.919s-1.919-0.859-1.919-1.919c0-1.060 0.859-1.919 1.919-1.919s1.919 0.859 1.919 1.919z"></path>
</symbol>
<symbol id="icon-twitter" viewBox="0 0 32 32">
<path d="M32 6.078c-1.19 0.522-2.458 0.868-3.78 1.036 1.36-0.812 2.398-2.088 2.886-3.626-1.268 0.756-2.668 1.29-4.16 1.588-1.204-1.282-2.92-2.076-4.792-2.076-3.632 0-6.556 2.948-6.556 6.562 0 0.52 0.044 1.020 0.152 1.496-5.454-0.266-10.28-2.88-13.522-6.862-0.566 0.982-0.898 2.106-0.898 3.316 0 2.272 1.17 4.286 2.914 5.452-1.054-0.020-2.088-0.326-2.964-0.808 0 0.020 0 0.046 0 0.072 0 3.188 2.274 5.836 5.256 6.446-0.534 0.146-1.116 0.216-1.72 0.216-0.42 0-0.844-0.024-1.242-0.112 0.85 2.598 3.262 4.508 6.13 4.57-2.232 1.746-5.066 2.798-8.134 2.798-0.538 0-1.054-0.024-1.57-0.090 2.906 1.874 6.35 2.944 10.064 2.944 12.072 0 18.672-10 18.672-18.668 0-0.29-0.010-0.57-0.024-0.848 1.302-0.924 2.396-2.078 3.288-3.406z"></path>
</symbol>
</defs>
</svg>
