<svg aria-hidden="true" style="position: absolute; width: 0; height: 0; overflow: hidden;" version="1.1" xmlns="http://www.w3.org/2000/svg" xmlns:xlink="http://www.w3.org/1999/xlink">
<defs>
<symbol id="icon-logo-header" viewBox="0 0 31 32">
<path fill="#ff6e40" style="fill: var(--color1, #ff6e40)" d="M26.444 5.201c-6.284 0-11.378 5.094-11.378 11.378 6.284 0 11.378-5.094 11.378-11.378z"></path>
<path fill="#ff6e40" style="fill: var(--color1, #ff6e40)" d="M26.444 26.536c-6.284 0-11.378-5.094-11.378-11.378 6.284 0 11.378 5.094 11.378 11.378z"></path>
<path fill="#ff6e40" style="fill: var(--color1, #ff6e40)" d="M15.066 16.58c-6.284 0-11.378-5.094-11.378-11.378 6.284 0 11.378 5.094 11.378 11.378z"></path>
<path fill="#ff6e40" style="fill: var(--color1, #ff6e40)" d="M15.066 15.156c-6.284 0-11.378 5.094-11.378 11.378 6.284 0 11.378-5.094 11.378-11.378z"></path>
<path fill="#ff6e40" style="fill: var(--color1, #ff6e40)" d="M30.445 16.092c-4.443-4.443-11.647-4.443-16.091 0 4.443 4.443 11.647 4.443 16.091 0z"></path>
<path fill="#ff6e40" style="fill: var(--color1, #ff6e40)" d="M16.223 16.092c-4.443-4.443-11.647-4.443-16.091 0 4.443 4.443 11.647 4.443 16.091 0z"></path>
<path fill="#ff6e40" style="fill: var(--color1, #ff6e40)" d="M15.289 16.091c-4.443-4.443-4.443-11.647 0-16.091 4.443 4.443 4.443 11.647 0 16.091z"></path>
<path fill="#ff6e40" style="fill: var(--color1, #ff6e40)" d="M15.289 15.646c-4.443 4.443-4.443 11.647 0 16.090 4.443-4.443 4.443-11.647 0-16.090z"></path>
</symbol>
<symbol id="icon-map-header" viewBox="0 0 32 32">
<path d="M26.501 7.965c-0.114-0.427-0.345-0.882-0.516-1.28-2.048-4.921-6.522-6.684-10.134-6.684-4.836 0-10.162 3.243-10.873 9.927v1.366c0 0.057 0.020 0.569 0.048 0.825 0.399 3.185 2.912 6.571 4.789 9.756 2.020 3.413 4.115 6.77 6.192 10.126 1.28-2.19 2.556-4.409 3.807-6.542 0.341-0.626 0.737-1.252 1.078-1.849 0.228-0.398 0.662-0.796 0.861-1.166 2.020-3.697 5.27-7.424 5.27-11.093v-1.507c0-0.398-0.493-1.792-0.521-1.877zM15.939 14.82c-1.422 0-2.978-0.711-3.746-2.674-0.114-0.312-0.105-0.939-0.105-0.996v-0.882c0-2.502 2.125-3.64 3.973-3.64 2.276 0 4.036 1.821 4.036 4.096s-1.883 4.096-4.158 4.096z"></path>
</symbol>
<symbol id="icon-phone-header" viewBox="0 0 32 32">
<path d="M26.913 20.019c-1.157-1.142-2.6-1.142-3.75 0-0.877 0.869-1.753 1.738-2.615 2.622-0.236 0.243-0.434 0.295-0.722 0.133-0.567-0.309-1.171-0.56-1.716-0.899-2.541-1.599-4.67-3.654-6.556-5.967-0.936-1.149-1.768-2.379-2.35-3.764-0.118-0.28-0.096-0.464 0.133-0.692 0.877-0.847 1.731-1.716 2.593-2.586 1.201-1.208 1.201-2.622-0.007-3.838-0.685-0.692-1.37-1.37-2.055-2.063-0.707-0.707-1.407-1.422-2.122-2.122-1.157-1.127-2.6-1.127-3.749 0.007-0.884 0.869-1.731 1.761-2.63 2.615-0.832 0.788-1.252 1.753-1.341 2.88-0.14 1.834 0.309 3.565 0.943 5.252 1.296 3.492 3.271 6.593 5.665 9.436 3.234 3.845 7.094 6.887 11.609 9.083 2.033 0.987 4.14 1.746 6.431 1.871 1.576 0.088 2.947-0.309 4.044-1.54 0.751-0.84 1.599-1.606 2.394-2.409 1.179-1.193 1.186-2.637 0.015-3.816-1.4-1.407-2.807-2.807-4.213-4.206z"></path>
</symbol>
<symbol id="icon-button-crest" viewBox="0 0 32 32">
<path d="M32.003 3.223l-3.223-3.223-12.778 12.778-12.778-12.778-3.223 3.223 12.778 12.778-12.778 12.778 3.223 3.223 12.778-12.778 12.778 12.778 3.223-3.223-12.778-12.778 12.778-12.778z"></path>
</symbol>
<symbol id="icon-menu-burger-mobile" viewBox="0 0 47 32">
<path d="M0.944 0.090c-0.141 0.041-0.412 0.228-0.601 0.418l-0.343 0.343v2.506l0.332 0.332c0.636 0.636-1.541 0.583 23.296 0.56l22.109-0.019 0.407-0.225 0.407-0.227v-3.375l-0.806-0.402-22.271 0.007c-13.936 0.004-22.368 0.035-22.529 0.081zM1.068 13.578c-0.359 0.109-0.742 0.384-0.909 0.653-0.141 0.23-0.159 0.384-0.159 1.413 0 1.004 0.020 1.187 0.151 1.401 0.217 0.355 0.735 0.628 1.365 0.72 0.742 0.108 43.085 0.108 43.826 0 0.295-0.042 0.679-0.156 0.854-0.252l0.316-0.175v-3.408l-0.698-0.39-22.266-0.013c-12.247-0.007-22.363 0.016-22.48 0.051zM1.219 27.084c-0.394 0.078-0.73 0.283-0.973 0.571l-0.002 0.003-0.244 0.279v2.498l0.332 0.332c0.636 0.634-1.541 0.582 23.296 0.56 20.795-0.019 22.125-0.028 22.381-0.154 0.573-0.285 0.543-0.17 0.543-2.022v-1.673l-0.892-0.438-22.074-0.012c-12.749-0.007-22.196 0.016-22.366 0.057z"></path>
</symbol>
<symbol id="icon-facebook" viewBox="0 0 32 32">
<path d="M21.329 5.313h2.921v-5.088c-0.504-0.069-2.237-0.225-4.256-0.225-4.212 0-7.097 2.649-7.097 7.519v4.481h-4.648v5.688h4.648v14.312h5.699v-14.311h4.46l0.708-5.688h-5.169v-3.919c0.001-1.644 0.444-2.769 2.735-2.769z"></path>
</symbol>
<symbol id="icon-gmail" viewBox="0 0 32 32">
<path d="M6.906 8.9c-0.287 0.125-0.588 0.4-0.737 0.688l-0.138 0.256-0.019 6.019c-0.006 3.938 0.006 6.1 0.050 6.256 0.088 0.331 0.3 0.625 0.612 0.85 0.25 0.175 0.319 0.188 0.894 0.206l0.619 0.025v-5.35c0-2.944 0.019-5.35 0.037-5.35s1.744 1.225 3.838 2.719c2.094 1.5 3.85 2.737 3.894 2.756 0.056 0.019 1.688-1.106 3.944-2.719 2.119-1.519 3.869-2.756 3.881-2.756 0.019 0 0.031 2.425 0.031 5.381v5.387l0.556-0.038c0.65-0.044 0.95-0.169 1.269-0.544 0.119-0.137 0.25-0.356 0.288-0.494 0.056-0.175 0.075-1.863 0.075-6.231v-5.994l-0.15-0.313c-0.175-0.369-0.413-0.613-0.738-0.744-0.506-0.213-0.313-0.331-4.863 2.938-2.319 1.662-4.25 3.012-4.281 3-0.037-0.012-1.956-1.375-4.262-3.031-4.5-3.225-4.331-3.125-4.8-2.919z"></path>
</symbol>
<symbol id="icon-instagram" viewBox="0 0 32 32">
<path d="M31.969 9.408c-0.075-1.7-0.35-2.869-0.744-3.882-0.406-1.075-1.031-2.038-1.85-2.838-0.8-0.813-1.769-1.444-2.832-1.844-1.019-0.394-2.182-0.669-3.882-0.744-1.713-0.081-2.257-0.1-6.601-0.1s-4.888 0.019-6.595 0.094c-1.7 0.075-2.869 0.35-3.882 0.744-1.075 0.406-2.038 1.031-2.838 1.85-0.813 0.8-1.444 1.769-1.844 2.832-0.394 1.019-0.669 2.182-0.744 3.882-0.081 1.713-0.1 2.257-0.1 6.601s0.019 4.888 0.094 6.595c0.075 1.7 0.35 2.869 0.744 3.882 0.406 1.075 1.038 2.038 1.85 2.838 0.8 0.813 1.769 1.444 2.832 1.844 1.019 0.394 2.182 0.669 3.882 0.744 1.706 0.075 2.25 0.094 6.595 0.094s4.888-0.018 6.595-0.094c1.7-0.075 2.869-0.35 3.882-0.744 2.151-0.831 3.851-2.532 4.682-4.682 0.394-1.019 0.669-2.182 0.744-3.882 0.075-1.707 0.094-2.251 0.094-6.595s-0.006-4.888-0.081-6.595zM29.087 22.473c-0.069 1.563-0.331 2.407-0.55 2.969-0.538 1.394-1.644 2.501-3.038 3.038-0.563 0.219-1.413 0.481-2.969 0.55-1.688 0.075-2.194 0.094-6.464 0.094s-4.782-0.018-6.464-0.094c-1.563-0.069-2.407-0.331-2.969-0.55-0.694-0.256-1.325-0.663-1.838-1.194-0.531-0.519-0.938-1.144-1.194-1.838-0.219-0.563-0.481-1.413-0.55-2.969-0.075-1.688-0.094-2.194-0.094-6.464s0.019-4.782 0.094-6.464c0.069-1.563 0.331-2.407 0.55-2.969 0.256-0.694 0.663-1.325 1.2-1.838 0.519-0.531 1.144-0.938 1.838-1.194 0.563-0.219 1.413-0.481 2.969-0.55 1.688-0.075 2.194-0.094 6.464-0.094 4.276 0 4.782 0.019 6.464 0.094 1.563 0.069 2.407 0.331 2.969 0.55 0.694 0.256 1.325 0.662 1.838 1.194 0.531 0.519 0.938 1.144 1.194 1.838 0.219 0.563 0.481 1.413 0.55 2.969 0.075 1.688 0.094 2.194 0.094 6.464s-0.019 4.77-0.094 6.457z"></path>
<path d="M16.059 7.782c-4.538 0-8.22 3.682-8.22 8.22s3.682 8.22 8.22 8.22c4.538 0 8.22-3.682 8.22-8.22s-3.682-8.22-8.22-8.22zM16.059 21.335c-2.944 0-5.332-2.388-5.332-5.332s2.388-5.332 5.332-5.332c2.944 0 5.332 2.388 5.332 5.332s-2.388 5.332-5.332 5.332z"></path>
<path d="M26.524 7.457c0 1.060-0.859 1.919-1.919 1.919s-1.919-0.859-1.919-1.919c0-1.060 0.859-1.919 1.919-1.919s1.919 0.859 1.919 1.919z"></path>
</symbol>
<symbol id="icon-twitter" viewBox="0 0 32 32">
<path d="M32 6.078c-1.19 0.522-2.458 0.868-3.78 1.036 1.36-0.812 2.398-2.088 2.886-3.626-1.268 0.756-2.668 1.29-4.16 1.588-1.204-1.282-2.92-2.076-4.792-2.076-3.632 0-6.556 2.948-6.556 6.562 0 0.52 0.044 1.020 0.152 1.496-5.454-0.266-10.28-2.88-13.522-6.862-0.566 0.982-0.898 2.106-0.898 3.316 0 2.272 1.17 4.286 2.914 5.452-1.054-0.020-2.088-0.326-2.964-0.808 0 0.020 0 0.046 0 0.072 0 3.188 2.274 5.836 5.256 6.446-0.534 0.146-1.116 0.216-1.72 0.216-0.42 0-0.844-0.024-1.242-0.112 0.85 2.598 3.262 4.508 6.13 4.57-2.232 1.746-5.066 2.798-8.134 2.798-0.538 0-1.054-0.024-1.57-0.090 2.906 1.874 6.35 2.944 10.064 2.944 12.072 0 18.672-10 18.672-18.668 0-0.29-0.010-0.57-0.024-0.848 1.302-0.924 2.396-2.078 3.288-3.406z"></path>
</symbol>
<symbol id="icon-house" viewBox="0 0 32 32">
<path fill="#ff6e40" style="fill: var(--color1, #ff6e40)" d="M18.974 18.564v4.757c0.305 0.177 0.513 0.505 0.513 0.884s-0.208 0.706-0.513 0.884v4.245h5.128v-10.769h-5.128z"></path>
<path fill="#ff6e40" style="fill: var(--color1, #ff6e40)" d="M14.872 21.641h-9.231v-5.128h9.231v5.128z"></path>
<path fill="#efe7e2" style="fill: var(--color2, #efe7e2)" d="M19.361 7.282c-0.765 0-1.43 0.518-1.615 1.261l-0.064 0.254-0.652-0.186-1.152-4.034-0.986 0.282 0.977 3.42-3.42-0.977-0.282 0.986 4.034 1.152 0.186 0.652-0.254 0.064c-0.742 0.185-1.261 0.849-1.261 1.614 0 0.918 0.747 1.665 1.665 1.665 0.779 0 1.412-0.634 1.412-1.412 0-0.13-0.018-0.261-0.054-0.388l-0.532-1.863 1.864 0.533c0.126 0.035 0.257 0.054 0.387 0.054 0.779 0 1.412-0.633 1.412-1.412 0-0.918-0.747-1.665-1.665-1.665v0zM16.536 12.41c-0.352 0-0.639-0.287-0.639-0.639 0-0.294 0.199-0.549 0.484-0.62l0.287-0.072 0.239 0.837c0.010 0.035 0.015 0.071 0.015 0.107 0 0.213-0.173 0.387-0.387 0.387v0zM19.507 9.318l-0.838-0.239 0.072-0.287c0.071-0.285 0.326-0.484 0.62-0.484 0.352 0 0.639 0.287 0.639 0.639 0 0.249-0.254 0.439-0.493 0.372v0z"></path>
<path fill="#efe7e2" style="fill: var(--color2, #efe7e2)" d="M31.282 11.385h-0.336l1.44-4.8-0.27-0.216c-5.051-4.042-11.395-6.267-17.864-6.267h-5.534v4.515c-4.723 0.832-7.803 2.646-7.956 2.737l-0.366 0.22 1.429 3.809h-0.286c-0.566 0-1.026 0.46-1.026 1.026v1.026c0 0.566 0.46 1.026 1.026 1.026v11.052c-0.626 0.362-1.026 1.032-1.026 1.769 0 0.32 0.082 0.628 0.222 0.909-0.136 0.174-0.222 0.391-0.222 0.629v3.077h30.769v-4.103c0.566 0 1.026-0.46 1.026-1.026v-7.18c0-0.338-0.166-0.636-0.419-0.823 0.259-0.344 0.419-0.766 0.419-1.229 0-0.756-0.415-1.41-1.026-1.766v-1.311c0.566 0 1.026-0.46 1.026-1.026v-1.026c0-0.566-0.46-1.026-1.026-1.026v0zM9.744 1.128h4.508c6.122 0 12.127 2.067 16.952 5.828l-1.329 4.429h-1.67v-3.344l-0.218-0.153c-0.086-0.060-2.11-1.455-5.882-2.516-1.171-1.924-3.282-3.217-5.694-3.217-1.916 0-3.642 0.817-4.859 2.116-0.623 0.043-1.226 0.107-1.808 0.187v-3.329zM16.41 14.462c-3.11 0-5.641-2.531-5.641-5.641s2.531-5.641 5.641-5.641c3.11 0 5.641 2.531 5.641 5.641s-2.531 5.641-5.641 5.641zM4.985 11.385l-0.806-2.416c0.348-0.13 0.725-0.263 1.128-0.393l0.703 2.81h-1.025zM7.067 11.385l-0.777-3.109c0.331-0.094 0.68-0.183 1.038-0.269l0.751 3.378h-1.012zM9.129 11.385l-0.8-3.601c0.495-0.099 1.010-0.187 1.543-0.261-0.083 0.42-0.129 0.853-0.129 1.297 0 0.908 0.184 1.774 0.514 2.564h-1.129zM27.18 9.449c-0.81-0.451-2.227-1.141-4.207-1.768-0.064-0.366-0.157-0.722-0.277-1.065 2.409 0.767 3.943 1.636 4.485 1.971v0.862zM23.075 8.793c0 0 0.001 0.001 0.002 0.001v2.591h-0.514c0.33-0.79 0.514-1.656 0.514-2.564 0-0.009-0.002-0.018-0.002-0.027zM24.103 9.162c0.373 0.144 0.714 0.285 1.026 0.423v1.8h-1.026v-2.223zM26.154 10.069c0.478 0.244 0.823 0.445 1.026 0.57v0.746h-1.026v-1.316zM10.716 5.371c-0.208 0.342-0.385 0.702-0.53 1.080-3.788 0.459-6.758 1.647-8.239 2.343l-0.286-0.763c1.091-0.572 4.491-2.178 9.055-2.659v0zM2.309 9.757c0.256-0.122 0.561-0.26 0.915-0.41l0.679 2.037h-0.984l-0.61-1.627zM1.538 12.41h9.263c0.236 0.368 0.507 0.712 0.809 1.026h-10.072v-1.026zM2.229 26.32l0.368-0.128-0.025-0.389-0.008-0.058c0-0.566 0.46-1.026 1.026-1.026 0.432 0 0.819 0.278 0.963 0.691l0.128 0.368 0.389-0.025 0.058-0.008c0.566 0 1.026 0.46 1.026 1.026s-0.46 1.026-1.026 1.026h-3.45c-0.090-0.155-0.14-0.331-0.14-0.513 0-0.432 0.278-0.819 0.691-0.963v0zM13.155 26.32c0.413 0.144 0.691 0.531 0.691 0.963 0 0.182-0.050 0.358-0.14 0.513h-3.45c-0.566 0-1.026-0.46-1.026-1.026s0.46-1.026 1.008-1.026l0.465 0.033 0.128-0.368c0.144-0.413 0.531-0.691 0.963-0.691 0.566 0 1.026 0.46 1.026 1.008l-0.033 0.465 0.368 0.129zM9.737 24.791c-0.879 0.231-1.532 1.027-1.532 1.978 0 0.375 0.109 0.723 0.285 1.026h-1.596c0.177-0.303 0.286-0.65 0.286-1.026 0-1.050-0.793-1.918-1.812-2.037-0.105-0.185-0.238-0.347-0.391-0.488 0.289-0.343 0.717-0.551 1.177-0.551 0.385 0 0.755 0.148 1.043 0.415l0.394 0.367 0.347-0.412c0.198-0.235 0.483-0.37 0.78-0.37 0.566 0 1.026 0.46 1.026 1.026 0 0.025-0.005 0.049-0.006 0.073v0zM13.846 30.872h-12.308v-2.051h12.308v2.051zM14.872 29.846h12.308v1.026h-12.308v-1.026zM25.128 28.82h-3.077v-1.026h2.051v-1.026h-2.051v-1.026h2.051v-1.026h-2.051v-1.026h2.051v-1.026h-2.051v-1.026h2.051v-1.026h-2.051v-2.051h-1.026v2.051h-2.051v1.026h2.051v1.026h-2.051v0.094c-0.161-0.057-0.332-0.094-0.513-0.094s-0.352 0.037-0.513 0.094v-5.223h7.18v11.282zM18.462 24.718c-0.283 0-0.513-0.23-0.513-0.513s0.23-0.513 0.513-0.513c0.283 0 0.513 0.23 0.513 0.513s-0.23 0.513-0.513 0.513zM19.906 23.692h1.12v1.026h-1.12c0.057-0.161 0.094-0.332 0.094-0.513s-0.037-0.352-0.094-0.513zM17.949 25.649c0.161 0.057 0.332 0.094 0.513 0.094s0.352-0.037 0.513-0.094v0.094h2.051v1.026h-2.051v1.026h2.051v1.026h-3.077v-3.171zM29.231 26.769v-1.026h2.052v1.026h-2.052zM29.231 17.538c0-0.566 0.46-1.026 1.026-1.026s1.026 0.46 1.026 1.026-0.46 1.026-1.026 1.026c-0.566 0-1.026-0.46-1.026-1.026zM31.282 19.59v1.026h-2.051v-1.026h2.051zM31.283 24.273l-2.052-1.368v-0.819l2.052 1.368v0.818zM30.412 21.641h0.87v0.581l-0.87-0.581zM30.101 24.718h-0.87v-0.581l0.87 0.581zM30.256 15.487c-1.131 0-2.051 0.92-2.051 2.051 0 0.463 0.16 0.885 0.419 1.229-0.253 0.187-0.419 0.485-0.419 0.823v7.18c0 0.566 0.46 1.026 1.026 1.026h1.026v3.077h-2.051v-1.026c0-0.566-0.46-1.026-1.026-1.026h-1.026v-12.308h-9.231v12.308h-2.051c0-0.238-0.085-0.455-0.222-0.629 0.139-0.281 0.222-0.589 0.222-0.909 0-0.743-0.406-1.418-1.039-1.777-0.119-1.019-0.987-1.812-2.037-1.812-0.419 0-0.814 0.133-1.146 0.36-0.278-0.803-1.034-1.385-1.931-1.385-0.436 0-0.855 0.141-1.203 0.396-0.407-0.258-0.876-0.396-1.361-0.396-0.838 0-1.613 0.416-2.088 1.086-0.154-0.037-0.313-0.060-0.476-0.060-0.374 0-0.723 0.104-1.026 0.28v-9.511h10.309c1.027 0.646 2.237 1.026 3.537 1.026s2.51-0.38 3.537-1.026h10.309v1.026zM31.282 13.436h-10.072c0.302-0.314 0.573-0.657 0.809-1.026h9.263v1.026z"></path>
<path fill="#efe7e2" style="fill: var(--color2, #efe7e2)" d="M9.744 16.513h1.026v5.128h-1.026v-5.128z"></path>
</symbol>
<symbol id="icon-hair" viewBox="0 0 32 32">
<path fill="#ff6e40" style="fill: var(--color1, #ff6e40)" d="M27.282 28.82h-6.154c-0.848 0-1.538-0.69-1.538-1.538s0.69-1.538 1.538-1.538h6.154c0.848 0 1.538 0.69 1.538 1.538s-0.69 1.538-1.538 1.538z"></path>
<path fill="#ff6e40" style="fill: var(--color1, #ff6e40)" d="M6.256 10.359h0.513v-0.715c0-0.976 0.413-1.898 1.121-2.547 0.24 0.704 0.907 1.211 1.693 1.211h4.757c0.752 0 1.387-0.5 1.591-1.186 0.692 0.647 1.094 1.558 1.094 2.523v0.715h0.513c0.426 0 0.811 0.173 1.089 0.452l0.419-1.049c0.36-0.9 0.543-1.848 0.543-2.817 0-2.217-0.966-4.317-2.649-5.76l-1.378-1.182-0.305 0.152c-0.925 0.463-3.365 1.149-6.871 1.934-1.858 0.416-3.156 2.039-3.156 3.946v0.007l-0.183 0.183c-0.544 0.544-0.843 1.267-0.843 2.035 0 0.444 0.105 0.889 0.304 1.287l0.642 1.283c0.28-0.29 0.671-0.473 1.106-0.473v0z"></path>
<path fill="#efe7e2" style="fill: var(--color2, #efe7e2)" d="M9.846 10.872c0.283 0 0.513 0.23 0.513 0.513h1.026c0-0.848-0.69-1.538-1.538-1.538s-1.538 0.69-1.538 1.538h1.026c0-0.283 0.23-0.513 0.513-0.513z"></path>
<path fill="#efe7e2" style="fill: var(--color2, #efe7e2)" d="M13.949 10.872c0.283 0 0.513 0.23 0.513 0.513h1.026c0-0.848-0.69-1.538-1.538-1.538s-1.538 0.69-1.538 1.538h1.026c0-0.283 0.23-0.513 0.513-0.513z"></path>
<path fill="#efe7e2" style="fill: var(--color2, #efe7e2)" d="M14.409 13.677l0.026-0.079-0.973-0.325-0.026 0.079c-0.221 0.663-0.839 1.109-1.538 1.109s-1.317-0.446-1.538-1.109l-0.026-0.079-0.973 0.325 0.026 0.078c0.361 1.084 1.37 1.811 2.511 1.811s2.151-0.727 2.511-1.81v0z"></path>
<path fill="#efe7e2" style="fill: var(--color2, #efe7e2)" d="M12.617 3.797l2.051-1.538 0.615 0.821-2.051 1.538-0.615-0.821z"></path>
<path fill="#efe7e2" style="fill: var(--color2, #efe7e2)" d="M30.575 23.714c0.184-0.307 0.297-0.663 0.297-1.047 0-0.871-0.548-1.612-1.315-1.909 0.18-0.288 0.29-0.626 0.29-0.991 0-0.944-0.706-1.744-1.643-1.861l-0.169-0.021c-1.505-0.188-2.79-1.18-3.353-2.588l-0.228-0.569-3.677 2.298c-0.743 0.464-1.186 1.265-1.186 2.14 0 0.313 0.064 0.614 0.17 0.894-0.238-0.075-0.479-0.141-0.728-0.185l-2.695-0.476c-0.854-0.151-1.525-0.827-1.667-1.683l-0.139-0.835c1.188-0.63 2.122-1.672 2.616-2.934h0.392c1.131 0 2.051-0.92 2.051-2.051s-0.92-2.051-2.051-2.051v-0.203c0-0.997-0.384-1.96-1.056-2.689 0.014-0.101 0.031-0.202 0.031-0.306 0-0.335-0.079-0.671-0.229-0.972l-0.337-0.675-0.917 0.459 0.337 0.675c0.079 0.158 0.121 0.336 0.121 0.513 0 0.632-0.514 1.147-1.147 1.147h-1.823c0.104-0.262 0.275-0.494 0.517-0.655l0.685-0.457-0.569-0.853-0.685 0.457c-0.532 0.354-0.892 0.897-1.024 1.508h-1.084c0-0.803 0.384-1.57 1.026-2.051l0.82-0.615-0.615-0.821-0.82 0.615c-0.892 0.669-1.426 1.732-1.434 2.847-0.585-0.116-1.027-0.632-1.027-1.25 0-0.647 0.309-1.264 0.826-1.652l1.020-0.765-0.615-0.821-1.020 0.765c-0.774 0.58-1.236 1.505-1.236 2.472 0 0.145 0.017 0.285 0.043 0.422-0.68 0.731-1.068 1.698-1.068 2.703v0.203c-1.131 0-2.051 0.92-2.051 2.051s0.92 2.051 2.051 2.051h0.392c0.495 1.262 1.429 2.304 2.616 2.934l-0.139 0.835c-0.143 0.855-0.812 1.532-1.667 1.683l-2.695 0.476c-2.701 0.476-4.661 2.812-4.661 5.555v6.467h29.744c1.131 0 2.051-0.92 2.051-2.051v-4.615c0-0.774-0.577-1.411-1.323-1.517v0zM28.82 23.692h-9.231c-0.566 0-1.026-0.46-1.026-1.026s0.46-1.026 1.026-1.026h9.231c0.566 0 1.026 0.46 1.026 1.026s-0.46 1.026-1.026 1.026zM21.32 17.895l2.668-1.667c0.793 1.46 2.248 2.466 3.921 2.674l0.169 0.021c0.424 0.053 0.744 0.415 0.744 0.843 0 0.468-0.381 0.849-0.849 0.849h-6.247l-0.085-0.029c-0.613-0.204-1.025-0.774-1.025-1.421 0-0.52 0.263-0.995 0.704-1.271v0zM18.564 11.897c0 0.566-0.46 1.026-1.026 1.026h-0.098c0.062-0.333 0.098-0.675 0.098-1.026v-1.026c0.566 0 1.026 0.46 1.026 1.026zM6.256 12.923c-0.566 0-1.026-0.46-1.026-1.026s0.46-1.026 1.026-1.026v1.026c0 0.351 0.036 0.692 0.098 1.026h-0.098zM7.282 11.897v-2.254c0-0.603 0.188-1.188 0.527-1.676 0.422 0.516 1.056 0.853 1.774 0.853h4.757c0.678 0 1.277-0.318 1.675-0.807 0.319 0.479 0.497 1.047 0.497 1.63v2.254c0 2.545-2.071 4.615-4.615 4.615s-4.615-2.071-4.615-4.615zM10.137 17.886l0.1-0.597c0.526 0.162 1.083 0.25 1.661 0.25s1.135-0.088 1.661-0.25l0.1 0.597c0.17 1.023 0.847 1.867 1.761 2.285-0.891 0.928-2.128 1.47-3.434 1.47h-0.173c-1.307 0-2.543-0.542-3.435-1.47 0.914-0.418 1.591-1.263 1.761-2.285zM16.788 30.872h-11.557v-5.128h-1.026v5.128h-3.077v-5.441c0-2.244 1.604-4.155 3.813-4.545l2.342-0.413c1.094 1.375 2.757 2.194 4.527 2.194h0.173c1.77 0 3.433-0.82 4.527-2.195l2.145 0.378c-0.66 0.342-1.118 1.023-1.118 1.816 0 0.384 0.113 0.74 0.297 1.047-0.746 0.106-1.323 0.743-1.323 1.517v4.615c0 0.373 0.1 0.724 0.275 1.026zM30.872 29.846c0 0.566-0.46 1.026-1.026 1.026h-11.282c-0.566 0-1.026-0.46-1.026-1.026v-4.615c0-0.283 0.23-0.513 0.513-0.513h12.308c0.283 0 0.513 0.23 0.513 0.513v4.615z"></path>
</symbol>
<symbol id="icon-longhair" viewBox="0 0 32 32">
<path fill="#ff6e40" style="fill: var(--color1, #ff6e40)" d="M28.159 21.277c-0.897-0.892-1.39-2.082-1.39-3.349v-8.959c0-4.892-3.974-8.867-8.867-8.867-0.636 0-1.277 0.072-1.903 0.205-0.626-0.133-1.267-0.205-1.903-0.205-4.892 0-8.867 3.974-8.867 8.867v8.959c0 1.267-0.492 2.456-1.39 3.349l-0.503 0.503 0.636 0.318c2.087 1.046 4.42 1.595 6.749 1.595h1.174v-1.423h0.016c-1.908-1.094-3.093-3.121-3.093-5.331v-3.077c0-0.067 0.005-0.128 0.021-0.19l-0.005 0.010c-0.62-0.349-1.041-1.021-1.041-1.785 0-1.133 0.918-2.051 2.051-2.051v-0.031c0-1.554 0.877-2.974 2.267-3.667l0.81-0.405c0.662 1.323 1.785 2.354 3.154 2.903l0.436 0.174 0.513-3.077 1.831 0.303c0.81 0.138 1.559 0.523 2.138 1.103 0.744 0.744 1.159 1.749 1.159 2.795v-0.097c1.133 0 2.051 0.918 2.051 2.051 0 0.764-0.421 1.436-1.041 1.785l-0.005-0.010c0.015 0.062 0.020 0.123 0.020 0.19v3.077c0 2.21-1.185 4.237-3.093 5.331h0.016v1.423h1.174c2.328 0 4.662-0.549 6.749-1.595l0.636-0.318-0.503-0.503z"></path>
<path fill="#efe7e2" style="fill: var(--color2, #efe7e2)" d="M17.026 15.879c-0.195 0.391-0.588 0.634-1.026 0.634s-0.83-0.243-1.026-0.634l-0.054-0.108-0.917 0.459 0.054 0.108c0.37 0.741 1.115 1.201 1.943 1.201s1.573-0.46 1.943-1.201l0.054-0.108-0.917-0.459-0.054 0.109z"></path>
<path fill="#efe7e2" style="fill: var(--color2, #efe7e2)" d="M26.935 25.439l-6.32-1.149v-1.734c1.909-1.22 3.077-3.328 3.077-5.617v-2.992c0.639-0.481 1.026-1.24 1.026-2.050 0-1.252-0.903-2.293-2.090-2.516-0.123-0.978-0.559-1.885-1.268-2.592-0.662-0.662-1.498-1.092-2.421-1.246l-2.334-0.39-0.492 2.952c-1.096-0.478-2.001-1.3-2.589-2.337l0.243-0.365c0.928-1.392 2.482-2.224 4.155-2.224 0.989 0 1.947 0.29 2.771 0.839l0.151 0.101 0.569-0.853-0.151-0.1c-0.992-0.662-2.147-1.011-3.34-1.011-2.017 0-3.89 1.002-5.010 2.681l-0.341 0.511-0.687 0.344c-1.442 0.721-2.374 2.111-2.521 3.693-1.184 0.226-2.082 1.266-2.082 2.515 0 0.811 0.386 1.57 1.026 2.050v2.992c0 2.289 1.168 4.397 3.077 5.617v1.734l-6.32 1.149c-2.875 0.523-4.962 3.024-4.962 5.946v0.513h31.795v-0.513c0-2.922-2.087-5.423-4.962-5.946v0zM11.385 18.743c0.317 0.304 0.657 0.581 1.026 0.815v2.408l-0.11-0.059c-0.332-0.179-0.632-0.396-0.915-0.631v-2.532zM13.436 20.087c0.333 0.14 0.673 0.262 1.026 0.346v2.637l-1.026-0.552v-2.431zM15.487 20.585c0.171 0.013 0.341 0.030 0.513 0.030s0.342-0.017 0.513-0.030v3.006c-0.331 0.117-0.695 0.117-1.026 0v-3.006zM17.538 20.433c0.352-0.084 0.693-0.207 1.026-0.346v2.431l-1.026 0.552v-2.637zM19.59 21.966v-2.408c0.368-0.235 0.709-0.511 1.026-0.815v2.532c-0.284 0.235-0.584 0.453-0.915 0.631l-0.11 0.059zM20.513 17.334c-1.059 1.412-2.747 2.256-4.513 2.256s-3.453-0.844-4.513-2.256c-0.004-0.006-0.008-0.012-0.012-0.017l0.64-1.441c0.382-0.86 1.236-1.414 2.176-1.414 0.368 0 0.736 0.087 1.065 0.251l0.644 0.322 0.644-0.322c0.329-0.164 0.697-0.251 1.065-0.251 0.94 0 1.794 0.555 2.176 1.414l0.64 1.441c-0.004 0.006-0.008 0.011-0.012 0.017v0zM14.793 24.414c0.37 0.199 0.788 0.304 1.207 0.304s0.837-0.105 1.207-0.304l2.383-1.283v1.33l-3.59 2.692-3.59-2.692v-1.33l2.383 1.283zM15.186 27.826l-2.982 2.609-1.163-5.039 0.727-0.132 3.417 2.563zM16 28.476l2.737 2.395h-5.475l2.737-2.395zM16.814 27.826l3.417-2.563 0.727 0.132-1.163 5.039-2.982-2.609zM22.667 16.939c0 1.178-0.376 2.293-1.026 3.224v-2.663c0.664-1.058 1.026-2.3 1.026-3.551v2.991zM23.692 11.897c0 0.365-0.14 0.705-0.367 0.977-0.029-0.034-0.052-0.071-0.084-0.102l-0.575-0.575v-1.745c0.595 0.212 1.026 0.776 1.026 1.444v0zM10.359 9.817c0-1.369 0.76-2.599 1.985-3.211l0.368-0.184c0.734 1.219 1.846 2.168 3.176 2.7l1.026 0.41 0.533-3.199 1.323 0.221c0.71 0.118 1.355 0.45 1.865 0.96 0.649 0.648 1.006 1.511 1.006 2.429v4.006c0 0.781-0.168 1.556-0.481 2.27l-0.337-0.759c-0.547-1.229-1.768-2.023-3.113-2.023-0.526 0-1.053 0.124-1.524 0.36l-0.186 0.093-0.185-0.093c-0.471-0.235-0.997-0.36-1.524-0.36-1.345 0-2.567 0.794-3.113 2.023l-0.337 0.759c-0.313-0.713-0.481-1.489-0.481-2.27v-4.131zM9.333 10.453v1.745l-0.575 0.575c-0.032 0.032-0.055 0.068-0.084 0.102-0.227-0.273-0.367-0.613-0.367-0.977 0-0.668 0.43-1.232 1.026-1.444v0zM9.333 16.939v-2.991c0 1.252 0.362 2.493 1.026 3.551v2.663c-0.65-0.93-1.026-2.045-1.026-3.224v0zM5.248 26.448l4.783-0.87 1.222 5.294h-10.098c0.224-2.201 1.876-4.021 4.094-4.424zM20.747 30.872l1.222-5.294 4.783 0.87c2.217 0.404 3.87 2.223 4.094 4.424h-10.098z"></path>
<path fill="#efe7e2" style="fill: var(--color2, #efe7e2)" d="M12.923 10.872c0.283 0 0.513 0.23 0.513 0.513h1.026c0-0.848-0.69-1.538-1.538-1.538s-1.538 0.69-1.538 1.538h1.026c0-0.283 0.23-0.513 0.513-0.513z"></path>
<path fill="#efe7e2" style="fill: var(--color2, #efe7e2)" d="M19.077 10.872c0.283 0 0.513 0.23 0.513 0.513h1.026c0-0.848-0.69-1.538-1.538-1.538s-1.538 0.69-1.538 1.538h1.026c0-0.283 0.23-0.513 0.513-0.513z"></path>
</symbol>
</defs>
</svg>
