<?xml version="1.0" standalone="no"?>
<!DOCTYPE svg PUBLIC "-//W3C//DTD SVG 20010904//EN"
 "http://www.w3.org/TR/2001/REC-SVG-20010904/DTD/svg10.dtd">
<svg version="1.0" xmlns="http://www.w3.org/2000/svg"
 width="512.000000pt" height="512.000000pt" viewBox="0 0 512.000000 512.000000"
 preserveAspectRatio="xMidYMid meet">

<g transform="translate(0.000000,512.000000) scale(0.100000,-0.100000)"
fill="#000000" stroke="none">
<path d="M1105 3696 c-46 -20 -94 -64 -118 -110 l-22 -41 -3 -963 c-1 -630 1
-976 8 -1001 14 -53 48 -100 98 -136 40 -28 51 -30 143 -33 l99 -4 0 856 c0
471 3 856 6 856 3 0 279 -196 614 -435 335 -240 616 -438 623 -441 9 -3 270
177 631 435 339 243 619 441 621 441 3 0 5 -388 5 -861 l0 -862 89 6 c104 7
152 27 203 87 19 22 40 57 46 79 9 28 12 298 12 997 l0 959 -24 50 c-28 59
-66 98 -118 119 -81 34 -50 53 -778 -470 -371 -266 -680 -482 -685 -480 -6 2
-313 220 -682 485 -720 516 -693 500 -768 467z"/>
</g>
</svg>
