<?xml version="1.0" standalone="no"?>
<!DOCTYPE svg PUBLIC "-//W3C//DTD SVG 20010904//EN"
 "http://www.w3.org/TR/2001/REC-SVG-20010904/DTD/svg10.dtd">
<svg version="1.0" xmlns="http://www.w3.org/2000/svg"
 width="4000.000000pt" height="4000.000000pt" viewBox="0 0 4000.000000 4000.000000"
 preserveAspectRatio="xMidYMid meet">
<metadata>
Created by potrace 1.14, written by Peter Selinger 2001-2017
</metadata>
<g transform="translate(0.000000,4000.000000) scale(0.100000,-0.100000)"
fill="#000000" stroke="none">
<path d="M10341 35778 c-106 -666 -92 -1353 40 -2013 324 -1620 1301 -3071
2839 -4217 85 -64 222 -161 304 -217 82 -56 147 -101 145 -101 -11 0 -340 130
-466 184 -1286 550 -2388 1377 -3223 2420 -286 358 -569 790 -731 1120 l-59
119 0 -152 c0 -377 56 -975 136 -1456 247 -1478 755 -2685 1514 -3595 137
-164 443 -469 600 -598 119 -98 382 -294 387 -288 1 1 -63 101 -143 221 -496
749 -944 1618 -1177 2280 -53 152 -68 200 -59 190 5 -6 37 -46 73 -90 529
-660 1190 -1205 1878 -1550 1096 -548 2327 -694 4046 -479 419 52 518 68 1953
309 579 98 1008 155 1432 191 249 22 815 25 1015 6 524 -50 973 -180 1329
-385 54 -31 103 -57 109 -57 5 0 95 27 201 59 1437 446 2849 705 4205 771 264
13 882 13 1142 0 221 -11 499 -33 674 -54 l110 -12 -75 -7 c-41 -4 -142 -12
-225 -17 -807 -57 -1739 -197 -2515 -376 -721 -166 -1371 -381 -1911 -630 -68
-31 -126 -58 -127 -60 -2 -1 5 -42 17 -91 120 -518 100 -1219 -54 -1820 -33
-129 -93 -333 -98 -333 -1 0 -3 75 -4 168 -9 636 -188 1167 -503 1483 -77 77
-220 192 -220 176 0 -2 11 -35 24 -73 174 -512 146 -1222 -79 -2031 -84 -300
-248 -753 -365 -1008 -32 -70 -38 -92 -28 -98 179 -103 323 -193 402 -249 531
-379 810 -805 905 -1382 35 -210 41 -308 51 -826 13 -677 28 -875 90 -1180
118 -580 388 -1074 852 -1565 50 -52 94 -95 100 -95 5 0 7 12 4 28 -4 15 -10
118 -15 229 -28 632 76 1325 295 1955 26 73 57 156 69 183 l21 50 13 -120 c34
-337 147 -654 330 -926 73 -110 180 -243 188 -235 2 2 -7 51 -21 108 -66 266
-92 585 -67 817 44 400 202 766 455 1050 292 328 696 534 996 506 452 -42 792
-425 895 -1010 47 -265 -19 -758 -156 -1167 -102 -307 -266 -610 -660 -1225
-252 -392 -297 -466 -365 -608 -68 -139 -86 -201 -133 -445 -102 -531 -313
-827 -641 -899 l-85 -18 55 -17 c137 -40 268 -47 397 -20 99 20 161 44 254 97
l77 44 -30 -66 c-150 -335 -205 -746 -186 -1406 13 -480 85 -1113 193 -1701
36 -198 82 -424 84 -412 1 4 12 92 26 195 138 1022 486 2363 972 3748 172 489
335 918 748 1965 467 1184 650 1674 865 2320 396 1187 598 2074 686 3015 21
229 30 860 15 1092 -67 1033 -355 1940 -879 2773 -91 144 -132 205 -253 370
l-77 105 -31 155 c-323 1574 -1163 2860 -2531 3877 -891 662 -2063 1207 -3199
1488 -101 25 -193 45 -204 45 -12 0 15 -21 64 -51 194 -118 371 -260 582 -468
351 -345 660 -747 954 -1241 90 -152 223 -394 223 -406 0 -5 -28 19 -62 52
-161 156 -448 393 -672 554 -1228 883 -2667 1280 -4448 1225 -137 -4 -248 -11
-248 -16 0 -5 16 -9 35 -9 20 0 118 -12 218 -26 1091 -153 2029 -570 2812
-1248 382 -331 746 -766 1008 -1202 65 -108 197 -360 197 -376 0 -4 -37 34
-82 85 -199 225 -506 511 -767 715 -140 110 -472 331 -641 427 -1412 803
-3233 1030 -5735 714 -471 -59 -1573 -233 -1591 -251 -1 -2 232 -3 519 -4
1153 -2 2068 -87 3008 -280 1350 -277 2477 -781 3170 -1419 125 -115 317 -328
283 -314 -5 2 -151 75 -324 161 -542 270 -1008 452 -1580 617 -654 188 -1281
301 -2415 436 -1179 140 -1538 194 -2061 310 -830 184 -1601 495 -2284 921
-46 29 -86 51 -88 49 -10 -9 185 -232 323 -370 344 -345 758 -641 1312 -939
813 -438 1962 -833 3088 -1061 159 -33 253 -56 242 -60 -26 -11 -909 1 -1067
14 -1177 96 -2177 364 -3142 843 -454 224 -805 439 -1184 724 -667 500 -1226
1109 -1484 1614 -58 115 -128 296 -117 306 3 3 41 -22 84 -57 473 -377 1121
-621 1888 -709 918 -107 2062 22 3248 365 325 93 846 269 834 281 -2 2 -109
-9 -238 -26 -1723 -219 -3225 -94 -4464 372 -591 223 -1124 528 -1526 875
-122 106 -334 321 -403 411 -27 34 -52 62 -56 62 -4 0 -17 -60 -29 -132z
m2792 -4821 c1495 -896 4158 -1643 6456 -1812 112 -8 206 -16 208 -18 10 -11
-663 -89 -962 -112 -505 -38 -1125 -44 -1540 -15 -1170 82 -2143 353 -2964
824 -526 303 -995 714 -1272 1119 -33 48 -58 87 -54 87 3 0 60 -33 128 -73z"/>
<path d="M27090 21035 c-69 -20 -186 -74 -247 -117 -71 -48 -207 -182 -278
-273 -141 -181 -285 -440 -382 -690 -91 -232 -118 -378 -117 -630 1 -139 7
-218 27 -346 13 -92 30 -176 37 -188 25 -48 94 -50 180 -6 194 98 387 387 446
668 20 96 18 238 -6 359 -31 158 -35 231 -16 328 39 210 180 377 297 353 64
-13 156 -160 232 -372 24 -66 36 -89 40 -75 17 58 27 151 27 258 0 185 -34
311 -116 433 -24 36 -44 67 -44 69 0 2 24 4 53 4 108 -1 259 -76 411 -205 l78
-67 -7 33 c-26 120 -106 271 -186 352 -85 84 -167 120 -284 124 -58 2 -110 -3
-145 -12z"/>
<path d="M23755 18790 c21 -370 15 -612 -25 -925 -112 -876 -474 -1852 -1046
-2817 -88 -148 -375 -591 -380 -585 -1 1 20 88 46 192 107 428 190 1032 215
1570 l5 120 -27 -60 c-374 -830 -1155 -1417 -2298 -1730 -162 -45 -481 -109
-639 -130 -66 -8 -121 -17 -123 -19 -13 -13 324 -292 524 -434 549 -390 1286
-729 1968 -906 l130 -33 -130 -8 c-237 -14 -551 11 -830 66 -785 155 -1584
562 -2489 1268 -299 233 -598 488 -1134 968 -161 145 -367 327 -457 404 l-165
142 88 49 c446 254 663 692 638 1288 -5 133 -35 362 -48 376 -3 2 -10 -33 -17
-79 -89 -600 -478 -955 -1136 -1037 -178 -22 -565 -12 -565 15 0 16 177 187
255 246 182 139 423 266 625 329 l55 17 -40 17 c-62 26 -250 82 -381 112 -90
20 -154 28 -264 31 -250 8 -357 -23 -896 -260 -753 -332 -921 -385 -1250 -394
-207 -6 -310 7 -473 59 -242 77 -486 242 -640 435 -50 61 -68 78 -74 67 -15
-27 -21 -343 -8 -451 28 -242 117 -458 252 -611 l37 -43 -95 -92 c-243 -235
-497 -565 -678 -882 -31 -55 -55 -89 -52 -75 3 14 24 135 47 270 l43 245 -278
655 c-153 360 -282 660 -287 665 -6 6 -7 -26 -3 -85 8 -113 -9 -483 -31 -683
-31 -287 -65 -463 -190 -992 -143 -604 -189 -840 -239 -1225 -90 -703 -109
-1628 -45 -2189 143 -1249 713 -2526 1613 -3611 98 -118 299 -340 308 -340 4
0 -6 35 -23 78 -273 707 -438 1559 -454 2352 l-5 265 50 -125 c69 -168 280
-592 381 -765 641 -1091 1475 -1826 2426 -2135 300 -98 620 -152 1049 -180
903 -57 1728 131 2330 532 178 118 270 194 412 342 121 125 121 125 98 73 -13
-29 -174 -360 -359 -737 -184 -376 -333 -686 -332 -688 11 -10 417 108 613
179 432 156 891 392 1293 663 995 671 1897 1687 2652 2986 459 790 891 1750
1144 2547 27 84 52 153 55 153 9 0 62 -161 93 -281 78 -301 149 -777 191
-1283 4 -46 10 -74 15 -65 4 8 26 86 48 174 396 1548 273 3361 -360 5305 -173
533 -431 1171 -648 1605 l-90 180 5 -85z m-8614 -4580 c974 -76 1903 -609
2411 -1385 134 -203 244 -453 282 -639 78 -375 -128 -699 -591 -930 -332 -166
-711 -250 -1128 -250 -593 0 -938 173 -1144 574 -141 274 -214 662 -195 1041
l6 136 103 6 c205 13 675 -22 977 -72 l108 -17 -24 30 c-44 59 -218 206 -330
281 -188 125 -398 213 -621 261 -581 123 -1234 -27 -1589 -366 l-78 -75 38 -7
c22 -4 197 -7 391 -7 l351 -1 6 -27 c63 -315 100 -798 77 -1023 -23 -218 -56
-316 -134 -387 -202 -182 -638 -101 -925 172 -139 131 -222 264 -286 456 -76
225 -102 427 -93 723 9 310 56 567 149 808 29 76 31 79 121 146 539 404 1339
612 2118 552z"/>
<path d="M29073 14877 c-62 -121 -301 -541 -448 -787 -949 -1588 -2025 -3008
-3075 -4060 -1078 -1078 -3648 -3310 -6498 -5643 -200 -163 -360 -297 -357
-297 16 0 311 69 520 121 1835 462 3766 1302 5670 2467 1947 1191 3884 2719
5517 4353 212 213 394 398 402 412 16 24 -1 60 -831 1771 -466 960 -850 1746
-853 1746 -3 0 -24 -37 -47 -83z"/>
</g>
</svg>
